<?xml version="1.0" encoding="UTF-8"?>
<svg xmlns="http://www.w3.org/2000/svg" xmlns:xlink="http://www.w3.org/1999/xlink" viewBox="0 0 100 100" width="100px" height="100px">
<g id="surface2196449">
<path style=" stroke:none;fill-rule:nonzero;fill:rgb(91.764706%,34.509805%,4.705882%);fill-opacity:1;" d="M 50 93.5 C 25.976562 93.5 6.5 74.023438 6.5 50 C 6.5 25.976562 25.976562 6.5 50 6.5 C 74.023438 6.5 93.5 25.976562 93.5 50 C 93.5 74.023438 74.023438 93.5 50 93.5 Z M 50 93.5 "/>
<path style=" stroke:none;fill-rule:nonzero;fill:rgb(100%,100%,100%);fill-opacity:1;" d="M 78.285156 34.941406 C 77.714844 31.785156 74.992188 29.488281 71.832031 28.769531 C 67.101562 27.769531 58.351562 27.050781 48.882812 27.050781 C 39.421875 27.050781 30.527344 27.769531 25.792969 28.769531 C 22.640625 29.488281 19.910156 31.640625 19.339844 34.941406 C 18.761719 38.527344 18.191406 43.546875 18.191406 50 C 18.191406 56.453125 18.761719 61.472656 19.480469 65.058594 C 20.058594 68.214844 22.78125 70.511719 25.933594 71.230469 C 30.953125 72.230469 39.558594 72.949219 49.027344 72.949219 C 58.496094 72.949219 67.101562 72.230469 72.125 71.230469 C 75.277344 70.511719 78 68.359375 78.578125 65.058594 C 79.148438 61.472656 79.867188 56.308594 80.011719 50 C 79.71875 43.546875 79.003906 38.527344 78.285156 34.941406 Z M 41.140625 60.039062 L 41.140625 39.960938 L 58.636719 50 Z M 41.140625 60.039062 "/>
</g>
</svg>
